<?xml version="1.0" encoding="UTF-8" standalone="no"?>
<!DOCTYPE svg PUBLIC "-//W3C//DTD SVG 1.1//EN"
 "http://www.w3.org/Graphics/SVG/1.1/DTD/svg11.dtd">
<!-- Generated by graphviz version 2.40.1 (20161225.0304)
 -->
<!-- Title: dependencies Pages: 1 -->
<svg width="2936pt" height="352pt"
 viewBox="0.00 0.00 2936.00 352.00" xmlns="http://www.w3.org/2000/svg" xmlns:xlink="http://www.w3.org/1999/xlink">
<g id="graph0" class="graph" transform="scale(1 1) rotate(0) translate(4 348)">
<title>dependencies</title>
<polygon fill="#ffffff" stroke="transparent" points="-4,4 -4,-348 2932,-348 2932,4 -4,4"/>
<text text-anchor="start" x="1443.0091" y="-42.4" font-family="sans-serif" font-weight="bold" font-size="14.00" fill="#000000">Legend</text>
<polygon fill="#ffffb3" stroke="transparent" points="1230,-10 1230,-30 1250,-30 1250,-10 1230,-10"/>
<text text-anchor="start" x="1253.629" y="-15.4" font-family="sans-serif" font-size="14.00" fill="#000000"> &#160;Declarations</text>
<polygon fill="#8dd3c7" stroke="transparent" points="1343,-10 1343,-30 1363,-30 1363,-10 1343,-10"/>
<text text-anchor="start" x="1366.7251" y="-15.4" font-family="sans-serif" font-size="14.00" fill="#000000"> &#160;Module</text>
<polygon fill="#80b1d3" stroke="transparent" points="1429,-10 1429,-30 1449,-30 1449,-10 1429,-10"/>
<text text-anchor="start" x="1452.7812" y="-15.4" font-family="sans-serif" font-size="14.00" fill="#000000"> &#160;Bootstrap</text>
<polygon fill="#fdb462" stroke="transparent" points="1526,-10 1526,-30 1546,-30 1546,-10 1526,-10"/>
<text text-anchor="start" x="1549.6732" y="-15.4" font-family="sans-serif" font-size="14.00" fill="#000000"> &#160;Providers</text>
<polygon fill="#fb8072" stroke="transparent" points="1622,-10 1622,-30 1642,-30 1642,-10 1622,-10"/>
<text text-anchor="start" x="1645.7258" y="-15.4" font-family="sans-serif" font-size="14.00" fill="#000000"> &#160;Exports</text>
<g id="clust1" class="cluster">
<title>cluster_AppModule</title>
<polygon fill="none" stroke="#000000" stroke-dasharray="1,5" points="476,-70 476,-336 883,-336 883,-70 476,-70"/>
</g>
<g id="clust2" class="cluster">
<title>cluster_AppModule_declarations</title>
<polygon fill="none" stroke="#000000" points="753,-146 753,-198 875,-198 875,-146 753,-146"/>
</g>
<g id="clust4" class="cluster">
<title>cluster_AppModule_imports</title>
<polygon fill="none" stroke="#000000" points="484,-78 484,-198 745,-198 745,-78 484,-78"/>
</g>
<g id="clust6" class="cluster">
<title>cluster_AppModule_bootstrap</title>
<polygon fill="none" stroke="#000000" points="589,-276 589,-328 713,-328 713,-276 589,-276"/>
</g>
<g id="clust14" class="cluster">
<title>cluster_CategoriesModule</title>
<polygon fill="none" stroke="#000000" stroke-dasharray="1,5" points="2724,-70 2724,-198 2920,-198 2920,-70 2724,-70"/>
</g>
<g id="clust16" class="cluster">
<title>cluster_CategoriesModule_imports</title>
<polygon fill="none" stroke="#000000" points="2732,-78 2732,-130 2912,-130 2912,-78 2732,-78"/>
</g>
<g id="clust26" class="cluster">
<title>cluster_CoreModule</title>
<polygon fill="none" stroke="#000000" stroke-dasharray="1,5" points="8,-70 8,-138 468,-138 468,-70 8,-70"/>
</g>
<g id="clust27" class="cluster">
<title>cluster_CoreModule_declarations</title>
<polygon fill="none" stroke="#000000" points="166,-78 166,-130 460,-130 460,-78 166,-78"/>
</g>
<g id="clust31" class="cluster">
<title>cluster_CoreModule_exports</title>
<polygon fill="none" stroke="#000000" points="16,-78 16,-130 158,-130 158,-78 16,-78"/>
</g>
<g id="clust40" class="cluster">
<title>cluster_TodosModule</title>
<polygon fill="none" stroke="#000000" stroke-dasharray="1,5" points="891,-70 891,-198 2716,-198 2716,-70 891,-70"/>
</g>
<g id="clust41" class="cluster">
<title>cluster_TodosModule_declarations</title>
<polygon fill="none" stroke="#000000" points="1063,-78 1063,-130 2708,-130 2708,-78 1063,-78"/>
</g>
<g id="clust50" class="cluster">
<title>cluster_TodosModule_imports</title>
<polygon fill="none" stroke="#000000" points="899,-78 899,-130 1055,-130 1055,-78 899,-78"/>
</g>
<!-- AppComponent -->
<g id="node1" class="node">
<title>AppComponent</title>
<polygon fill="#ffffb3" stroke="#000000" points="866.9399,-190 761.0601,-190 761.0601,-154 866.9399,-154 866.9399,-190"/>
<text text-anchor="middle" x="814" y="-167.8" font-family="Times,serif" font-size="14.00" fill="#000000">AppComponent</text>
</g>
<!-- AppModule -->
<g id="node2" class="node">
<title>AppModule</title>
<polygon fill="#8dd3c7" stroke="#000000" points="692.6571,-255 689.6571,-259 668.6571,-259 665.6571,-255 609.3429,-255 609.3429,-219 692.6571,-219 692.6571,-255"/>
<text text-anchor="middle" x="651" y="-232.8" font-family="Times,serif" font-size="14.00" fill="#000000">AppModule</text>
</g>
<!-- AppComponent&#45;&gt;AppModule -->
<g id="edge1" class="edge">
<title>AppComponent&#45;&gt;AppModule</title>
<path fill="none" stroke="#000000" d="M761.1568,-172C723.425,-172 679.3184,-172 679.3184,-172 679.3184,-172 679.3184,-208.8939 679.3184,-208.8939"/>
<polygon fill="#000000" stroke="#000000" points="675.8185,-208.8938 679.3184,-218.8939 682.8185,-208.8939 675.8185,-208.8938"/>
</g>
<!-- AppComponent  -->
<g id="node6" class="node">
<title>AppComponent </title>
<polygon fill="#80b1d3" stroke="#000000" points="705.439,-320 596.561,-320 596.561,-284 705.439,-284 705.439,-320"/>
<text text-anchor="middle" x="651" y="-297.8" font-family="Times,serif" font-size="14.00" fill="#000000">AppComponent </text>
</g>
<!-- AppModule&#45;&gt;AppComponent  -->
<g id="edge5" class="edge">
<title>AppModule&#45;&gt;AppComponent </title>
<path fill="none" stroke="#000000" stroke-dasharray="1,5" d="M651,-255.1061C651,-255.1061 651,-273.991 651,-273.991"/>
<polygon fill="#000000" stroke="#000000" points="647.5001,-273.9909 651,-283.991 654.5001,-273.991 647.5001,-273.9909"/>
</g>
<!-- AppRoutingModule -->
<g id="node3" class="node">
<title>AppRoutingModule</title>
<polygon fill="#8dd3c7" stroke="#000000" points="620.2744,-122 617.2744,-126 596.2744,-126 593.2744,-122 491.7256,-122 491.7256,-86 620.2744,-86 620.2744,-122"/>
<text text-anchor="middle" x="556" y="-99.8" font-family="Times,serif" font-size="14.00" fill="#000000">AppRoutingModule</text>
</g>
<!-- AppRoutingModule&#45;&gt;AppModule -->
<g id="edge2" class="edge">
<title>AppRoutingModule&#45;&gt;AppModule</title>
<path fill="none" stroke="#000000" d="M616.6487,-122.2142C616.6487,-122.2142 616.6487,-208.579 616.6487,-208.579"/>
<polygon fill="#000000" stroke="#000000" points="613.1488,-208.5789 616.6487,-218.579 620.1488,-208.579 613.1488,-208.5789"/>
</g>
<!-- CoreModule -->
<g id="node4" class="node">
<title>CoreModule</title>
<polygon fill="#8dd3c7" stroke="#000000" points="578.2619,-190 575.2619,-194 554.2619,-194 551.2619,-190 491.7381,-190 491.7381,-154 578.2619,-154 578.2619,-190"/>
<text text-anchor="middle" x="535" y="-167.8" font-family="Times,serif" font-size="14.00" fill="#000000">CoreModule</text>
</g>
<!-- CoreModule&#45;&gt;AppModule -->
<g id="edge3" class="edge">
<title>CoreModule&#45;&gt;AppModule</title>
<path fill="none" stroke="#000000" d="M578.5109,-181C596.3572,-181 612.9102,-181 612.9102,-181 612.9102,-181 612.9102,-208.973 612.9102,-208.973"/>
<polygon fill="#000000" stroke="#000000" points="609.4103,-208.973 612.9102,-218.973 616.4103,-208.973 609.4103,-208.973"/>
</g>
<!-- NavbarComponent  -->
<g id="node11" class="node">
<title>NavbarComponent </title>
<polygon fill="#fb8072" stroke="#000000" points="150.0288,-122 23.9712,-122 23.9712,-86 150.0288,-86 150.0288,-122"/>
<text text-anchor="middle" x="87" y="-99.8" font-family="Times,serif" font-size="14.00" fill="#000000">NavbarComponent </text>
</g>
<!-- CoreModule&#45;&gt;NavbarComponent  -->
<g id="edge10" class="edge">
<title>CoreModule&#45;&gt;NavbarComponent </title>
<path fill="none" stroke="#000000" stroke-dasharray="5,2" d="M491.6368,-181C379.206,-181 87,-181 87,-181 87,-181 87,-132.2479 87,-132.2479"/>
<polygon fill="#000000" stroke="#000000" points="90.5001,-132.2479 87,-122.2479 83.5001,-132.248 90.5001,-132.2479"/>
</g>
<!-- SharedModule -->
<g id="node5" class="node">
<title>SharedModule</title>
<polygon fill="#8dd3c7" stroke="#000000" points="737.4231,-122 734.4231,-126 713.4231,-126 710.4231,-122 638.5769,-122 638.5769,-86 737.4231,-86 737.4231,-122"/>
<text text-anchor="middle" x="688" y="-99.8" font-family="Times,serif" font-size="14.00" fill="#000000">SharedModule</text>
</g>
<!-- SharedModule&#45;&gt;AppModule -->
<g id="edge4" class="edge">
<title>SharedModule&#45;&gt;AppModule</title>
<path fill="none" stroke="#000000" d="M665.8086,-122.2142C665.8086,-122.2142 665.8086,-208.579 665.8086,-208.579"/>
<polygon fill="#000000" stroke="#000000" points="662.3086,-208.5789 665.8086,-218.579 669.3086,-208.579 662.3086,-208.5789"/>
</g>
<!-- SharedModule&#45;&gt;CoreModule -->
<g id="edge9" class="edge">
<title>SharedModule&#45;&gt;CoreModule</title>
<path fill="none" stroke="#000000" d="M652.2987,-122.0225C652.2987,-139.3734 652.2987,-163 652.2987,-163 652.2987,-163 588.3445,-163 588.3445,-163"/>
<polygon fill="#000000" stroke="#000000" points="588.3445,-159.5001 578.3445,-163 588.3444,-166.5001 588.3445,-159.5001"/>
</g>
<!-- TodosModule -->
<g id="node20" class="node">
<title>TodosModule</title>
<polygon fill="#8dd3c7" stroke="#000000" points="1733.0481,-190 1730.0481,-194 1709.0481,-194 1706.0481,-190 1638.9519,-190 1638.9519,-154 1733.0481,-154 1733.0481,-190"/>
<text text-anchor="middle" x="1686" y="-167.8" font-family="Times,serif" font-size="14.00" fill="#000000">TodosModule</text>
</g>
<!-- SharedModule&#45;&gt;TodosModule -->
<g id="edge19" class="edge">
<title>SharedModule&#45;&gt;TodosModule</title>
<path fill="none" stroke="#000000" d="M721.3403,-122.1944C721.3403,-130.2782 721.3403,-138 721.3403,-138 721.3403,-138 1651.4628,-138 1651.4628,-138 1651.4628,-138 1651.4628,-143.8056 1651.4628,-143.8056"/>
<polygon fill="#000000" stroke="#000000" points="1647.9629,-143.8055 1651.4628,-153.8056 1654.9629,-143.8056 1647.9629,-143.8055"/>
</g>
<!-- CategoriesRoutingModule -->
<g id="node7" class="node">
<title>CategoriesRoutingModule</title>
<polygon fill="#8dd3c7" stroke="#000000" points="2904.0351,-122 2901.0351,-126 2880.0351,-126 2877.0351,-122 2739.9649,-122 2739.9649,-86 2904.0351,-86 2904.0351,-122"/>
<text text-anchor="middle" x="2822" y="-99.8" font-family="Times,serif" font-size="14.00" fill="#000000">CategoriesRoutingModule</text>
</g>
<!-- CategoriesModule -->
<g id="node8" class="node">
<title>CategoriesModule</title>
<polygon fill="#8dd3c7" stroke="#000000" points="2881.9173,-190 2878.9173,-194 2857.9173,-194 2854.9173,-190 2762.0827,-190 2762.0827,-154 2881.9173,-154 2881.9173,-190"/>
<text text-anchor="middle" x="2822" y="-167.8" font-family="Times,serif" font-size="14.00" fill="#000000">CategoriesModule</text>
</g>
<!-- CategoriesRoutingModule&#45;&gt;CategoriesModule -->
<g id="edge6" class="edge">
<title>CategoriesRoutingModule&#45;&gt;CategoriesModule</title>
<path fill="none" stroke="#000000" d="M2822,-122.2228C2822,-122.2228 2822,-143.7269 2822,-143.7269"/>
<polygon fill="#000000" stroke="#000000" points="2818.5001,-143.7269 2822,-153.7269 2825.5001,-143.727 2818.5001,-143.7269"/>
</g>
<!-- NavbarComponent -->
<g id="node9" class="node">
<title>NavbarComponent</title>
<polygon fill="#ffffb3" stroke="#000000" points="452.0297,-122 329.9703,-122 329.9703,-86 452.0297,-86 452.0297,-122"/>
<text text-anchor="middle" x="391" y="-99.8" font-family="Times,serif" font-size="14.00" fill="#000000">NavbarComponent</text>
</g>
<!-- NavbarComponent&#45;&gt;CoreModule -->
<g id="edge7" class="edge">
<title>NavbarComponent&#45;&gt;CoreModule</title>
<path fill="none" stroke="#000000" d="M391,-122.0225C391,-139.3734 391,-163 391,-163 391,-163 481.4045,-163 481.4045,-163"/>
<polygon fill="#000000" stroke="#000000" points="481.4045,-166.5001 491.4045,-163 481.4044,-159.5001 481.4045,-166.5001"/>
</g>
<!-- NotFoundComponent -->
<g id="node10" class="node">
<title>NotFoundComponent</title>
<polygon fill="#ffffb3" stroke="#000000" points="312.1122,-122 173.8878,-122 173.8878,-86 312.1122,-86 312.1122,-122"/>
<text text-anchor="middle" x="243" y="-99.8" font-family="Times,serif" font-size="14.00" fill="#000000">NotFoundComponent</text>
</g>
<!-- NotFoundComponent&#45;&gt;CoreModule -->
<g id="edge8" class="edge">
<title>NotFoundComponent&#45;&gt;CoreModule</title>
<path fill="none" stroke="#000000" d="M243,-122.2228C243,-142.3652 243,-172 243,-172 243,-172 481.6,-172 481.6,-172"/>
<polygon fill="#000000" stroke="#000000" points="481.6,-175.5001 491.6,-172 481.5999,-168.5001 481.6,-175.5001"/>
</g>
<!-- TodoCardItemComponent -->
<g id="node12" class="node">
<title>TodoCardItemComponent</title>
<polygon fill="#ffffb3" stroke="#000000" points="1470.7534,-122 1307.2466,-122 1307.2466,-86 1470.7534,-86 1470.7534,-122"/>
<text text-anchor="middle" x="1389" y="-99.8" font-family="Times,serif" font-size="14.00" fill="#000000">TodoCardItemComponent</text>
</g>
<!-- TodoCardItemComponent&#45;&gt;TodosModule -->
<g id="edge11" class="edge">
<title>TodoCardItemComponent&#45;&gt;TodosModule</title>
<path fill="none" stroke="#000000" d="M1389,-122.0225C1389,-139.3734 1389,-163 1389,-163 1389,-163 1628.9395,-163 1628.9395,-163"/>
<polygon fill="#000000" stroke="#000000" points="1628.9395,-166.5001 1638.9395,-163 1628.9394,-159.5001 1628.9395,-166.5001"/>
</g>
<!-- TodoCardItemContainerComponent -->
<g id="node13" class="node">
<title>TodoCardItemContainerComponent</title>
<polygon fill="#ffffb3" stroke="#000000" points="1289.4608,-122 1070.5392,-122 1070.5392,-86 1289.4608,-86 1289.4608,-122"/>
<text text-anchor="middle" x="1180" y="-99.8" font-family="Times,serif" font-size="14.00" fill="#000000">TodoCardItemContainerComponent</text>
</g>
<!-- TodoCardItemContainerComponent&#45;&gt;TodosModule -->
<g id="edge12" class="edge">
<title>TodoCardItemContainerComponent&#45;&gt;TodosModule</title>
<path fill="none" stroke="#000000" d="M1180,-122.2228C1180,-142.3652 1180,-172 1180,-172 1180,-172 1628.8511,-172 1628.8511,-172"/>
<polygon fill="#000000" stroke="#000000" points="1628.8512,-175.5001 1638.8511,-172 1628.8511,-168.5001 1628.8512,-175.5001"/>
</g>
<!-- TodoCategoryListContainerComponent -->
<g id="node14" class="node">
<title>TodoCategoryListContainerComponent</title>
<polygon fill="#ffffb3" stroke="#000000" points="2699.6881,-122 2460.3119,-122 2460.3119,-86 2699.6881,-86 2699.6881,-122"/>
<text text-anchor="middle" x="2580" y="-99.8" font-family="Times,serif" font-size="14.00" fill="#000000">TodoCategoryListContainerComponent</text>
</g>
<!-- TodoCategoryListContainerComponent&#45;&gt;TodosModule -->
<g id="edge13" class="edge">
<title>TodoCategoryListContainerComponent&#45;&gt;TodosModule</title>
<path fill="none" stroke="#000000" d="M2580,-122.3228C2580,-145.6602 2580,-183 2580,-183 2580,-183 1743.1199,-183 1743.1199,-183"/>
<polygon fill="#000000" stroke="#000000" points="1743.1199,-179.5001 1733.1199,-183 1743.1199,-186.5001 1743.1199,-179.5001"/>
</g>
<!-- TodoCreateComponent -->
<g id="node15" class="node">
<title>TodoCreateComponent</title>
<polygon fill="#ffffb3" stroke="#000000" points="2442.9172,-122 2295.0828,-122 2295.0828,-86 2442.9172,-86 2442.9172,-122"/>
<text text-anchor="middle" x="2369" y="-99.8" font-family="Times,serif" font-size="14.00" fill="#000000">TodoCreateComponent</text>
</g>
<!-- TodoCreateComponent&#45;&gt;TodosModule -->
<g id="edge14" class="edge">
<title>TodoCreateComponent&#45;&gt;TodosModule</title>
<path fill="none" stroke="#000000" d="M2369,-122.1686C2369,-143.498 2369,-176 2369,-176 2369,-176 1743.2148,-176 1743.2148,-176"/>
<polygon fill="#000000" stroke="#000000" points="1743.2149,-172.5001 1733.2148,-176 1743.2148,-179.5001 1743.2149,-172.5001"/>
</g>
<!-- TodoDetailsComponent -->
<g id="node16" class="node">
<title>TodoDetailsComponent</title>
<polygon fill="#ffffb3" stroke="#000000" points="2277.0379,-122 2126.9621,-122 2126.9621,-86 2277.0379,-86 2277.0379,-122"/>
<text text-anchor="middle" x="2202" y="-99.8" font-family="Times,serif" font-size="14.00" fill="#000000">TodoDetailsComponent</text>
</g>
<!-- TodoDetailsComponent&#45;&gt;TodosModule -->
<g id="edge15" class="edge">
<title>TodoDetailsComponent&#45;&gt;TodosModule</title>
<path fill="none" stroke="#000000" d="M2202,-122.1061C2202,-141.3391 2202,-169 2202,-169 2202,-169 1743.1595,-169 1743.1595,-169"/>
<polygon fill="#000000" stroke="#000000" points="1743.1595,-165.5001 1733.1595,-169 1743.1594,-172.5001 1743.1595,-165.5001"/>
</g>
<!-- TodoDetailsContainerComponent -->
<g id="node17" class="node">
<title>TodoDetailsContainerComponent</title>
<polygon fill="#ffffb3" stroke="#000000" points="2108.745,-122 1903.255,-122 1903.255,-86 2108.745,-86 2108.745,-122"/>
<text text-anchor="middle" x="2006" y="-99.8" font-family="Times,serif" font-size="14.00" fill="#000000">TodoDetailsContainerComponent</text>
</g>
<!-- TodoDetailsContainerComponent&#45;&gt;TodosModule -->
<g id="edge16" class="edge">
<title>TodoDetailsContainerComponent&#45;&gt;TodosModule</title>
<path fill="none" stroke="#000000" d="M2006,-122.0336C2006,-139.0597 2006,-162 2006,-162 2006,-162 1743.2171,-162 1743.2171,-162"/>
<polygon fill="#000000" stroke="#000000" points="1743.2171,-158.5001 1733.2171,-162 1743.2171,-165.5001 1743.2171,-158.5001"/>
</g>
<!-- TodoEditContainerComponent -->
<g id="node18" class="node">
<title>TodoEditContainerComponent</title>
<polygon fill="#ffffb3" stroke="#000000" points="1884.9269,-122 1695.0731,-122 1695.0731,-86 1884.9269,-86 1884.9269,-122"/>
<text text-anchor="middle" x="1790" y="-99.8" font-family="Times,serif" font-size="14.00" fill="#000000">TodoEditContainerComponent</text>
</g>
<!-- TodoEditContainerComponent&#45;&gt;TodosModule -->
<g id="edge17" class="edge">
<title>TodoEditContainerComponent&#45;&gt;TodosModule</title>
<path fill="none" stroke="#000000" d="M1714.2802,-122.2228C1714.2802,-122.2228 1714.2802,-143.7269 1714.2802,-143.7269"/>
<polygon fill="#000000" stroke="#000000" points="1710.7802,-143.7269 1714.2802,-153.7269 1717.7802,-143.727 1710.7802,-143.7269"/>
</g>
<!-- TodoListContainerComponent -->
<g id="node19" class="node">
<title>TodoListContainerComponent</title>
<polygon fill="#ffffb3" stroke="#000000" points="1676.871,-122 1489.129,-122 1489.129,-86 1676.871,-86 1676.871,-122"/>
<text text-anchor="middle" x="1583" y="-99.8" font-family="Times,serif" font-size="14.00" fill="#000000">TodoListContainerComponent</text>
</g>
<!-- TodoListContainerComponent&#45;&gt;TodosModule -->
<g id="edge18" class="edge">
<title>TodoListContainerComponent&#45;&gt;TodosModule</title>
<path fill="none" stroke="#000000" d="M1664.1992,-122.2228C1664.1992,-122.2228 1664.1992,-143.7269 1664.1992,-143.7269"/>
<polygon fill="#000000" stroke="#000000" points="1660.6993,-143.7269 1664.1992,-153.7269 1667.6993,-143.727 1660.6993,-143.7269"/>
</g>
<!-- TodosRoutingModule -->
<g id="node21" class="node">
<title>TodosRoutingModule</title>
<polygon fill="#8dd3c7" stroke="#000000" points="1046.6652,-122 1043.6652,-126 1022.6652,-126 1019.6652,-122 907.3348,-122 907.3348,-86 1046.6652,-86 1046.6652,-122"/>
<text text-anchor="middle" x="977" y="-99.8" font-family="Times,serif" font-size="14.00" fill="#000000">TodosRoutingModule</text>
</g>
<!-- TodosRoutingModule&#45;&gt;TodosModule -->
<g id="edge20" class="edge">
<title>TodosRoutingModule&#45;&gt;TodosModule</title>
<path fill="none" stroke="#000000" d="M977,-122.2479C977,-145.0179 977,-181 977,-181 977,-181 1628.9315,-181 1628.9315,-181"/>
<polygon fill="#000000" stroke="#000000" points="1628.9315,-184.5001 1638.9315,-181 1628.9314,-177.5001 1628.9315,-184.5001"/>
</g>
</g>
</svg>
