<?xml version="1.0" encoding="UTF-8" standalone="no"?>
<!DOCTYPE svg PUBLIC "-//W3C//DTD SVG 1.1//EN"
 "http://www.w3.org/Graphics/SVG/1.1/DTD/svg11.dtd">
<!-- Generated by graphviz version 2.40.1 (20161225.0304)
 -->
<!-- Title: dependencies Pages: 1 -->
<svg width="1965pt" height="211pt"
 viewBox="0.00 0.00 1965.00 211.00" xmlns="http://www.w3.org/2000/svg" xmlns:xlink="http://www.w3.org/1999/xlink">
<g id="graph0" class="graph" transform="scale(1 1) rotate(0) translate(4 207)">
<title>dependencies</title>
<polygon fill="#ffffff" stroke="transparent" points="-4,4 -4,-207 1961,-207 1961,4 -4,4"/>
<text text-anchor="start" x="957.5091" y="-42.4" font-family="sans-serif" font-weight="bold" font-size="14.00" fill="#000000">Legend</text>
<polygon fill="#ffffb3" stroke="transparent" points="744.5,-10 744.5,-30 764.5,-30 764.5,-10 744.5,-10"/>
<text text-anchor="start" x="768.129" y="-15.4" font-family="sans-serif" font-size="14.00" fill="#000000"> &#160;Declarations</text>
<polygon fill="#8dd3c7" stroke="transparent" points="857.5,-10 857.5,-30 877.5,-30 877.5,-10 857.5,-10"/>
<text text-anchor="start" x="881.2251" y="-15.4" font-family="sans-serif" font-size="14.00" fill="#000000"> &#160;Module</text>
<polygon fill="#80b1d3" stroke="transparent" points="943.5,-10 943.5,-30 963.5,-30 963.5,-10 943.5,-10"/>
<text text-anchor="start" x="967.2812" y="-15.4" font-family="sans-serif" font-size="14.00" fill="#000000"> &#160;Bootstrap</text>
<polygon fill="#fdb462" stroke="transparent" points="1040.5,-10 1040.5,-30 1060.5,-30 1060.5,-10 1040.5,-10"/>
<text text-anchor="start" x="1064.1732" y="-15.4" font-family="sans-serif" font-size="14.00" fill="#000000"> &#160;Providers</text>
<polygon fill="#fb8072" stroke="transparent" points="1136.5,-10 1136.5,-30 1156.5,-30 1156.5,-10 1136.5,-10"/>
<text text-anchor="start" x="1160.2258" y="-15.4" font-family="sans-serif" font-size="14.00" fill="#000000"> &#160;Exports</text>
<g id="clust1" class="cluster">
<title>cluster_TodosModule</title>
<polygon fill="none" stroke="#000000" stroke-dasharray="1,5" points="8,-70 8,-195 1949,-195 1949,-70 8,-70"/>
</g>
<g id="clust2" class="cluster">
<title>cluster_TodosModule_declarations</title>
<polygon fill="none" stroke="#000000" points="296,-78 296,-130 1941,-130 1941,-78 296,-78"/>
</g>
<g id="clust11" class="cluster">
<title>cluster_TodosModule_imports</title>
<polygon fill="none" stroke="#000000" points="16,-78 16,-130 288,-130 288,-78 16,-78"/>
</g>
<!-- TodoCardItemComponent -->
<g id="node1" class="node">
<title>TodoCardItemComponent</title>
<polygon fill="#ffffb3" stroke="#000000" points="1932.7534,-122 1769.2466,-122 1769.2466,-86 1932.7534,-86 1932.7534,-122"/>
<text text-anchor="middle" x="1851" y="-99.8" font-family="Times,serif" font-size="14.00" fill="#000000">TodoCardItemComponent</text>
</g>
<!-- TodosModule -->
<g id="node9" class="node">
<title>TodosModule</title>
<polygon fill="#8dd3c7" stroke="#000000" points="966.0481,-187 963.0481,-191 942.0481,-191 939.0481,-187 871.9519,-187 871.9519,-151 966.0481,-151 966.0481,-187"/>
<text text-anchor="middle" x="919" y="-164.8" font-family="Times,serif" font-size="14.00" fill="#000000">TodosModule</text>
</g>
<!-- TodoCardItemComponent&#45;&gt;TodosModule -->
<g id="edge1" class="edge">
<title>TodoCardItemComponent&#45;&gt;TodosModule</title>
<path fill="none" stroke="#000000" d="M1851,-122.0109C1851,-144.4852 1851,-180 1851,-180 1851,-180 976.1776,-180 976.1776,-180"/>
<polygon fill="#000000" stroke="#000000" points="976.1776,-176.5001 966.1776,-180 976.1775,-183.5001 976.1776,-176.5001"/>
</g>
<!-- TodoCardItemContainerComponent -->
<g id="node2" class="node">
<title>TodoCardItemContainerComponent</title>
<polygon fill="#ffffb3" stroke="#000000" points="1751.4608,-122 1532.5392,-122 1532.5392,-86 1751.4608,-86 1751.4608,-122"/>
<text text-anchor="middle" x="1642" y="-99.8" font-family="Times,serif" font-size="14.00" fill="#000000">TodoCardItemContainerComponent</text>
</g>
<!-- TodoCardItemContainerComponent&#45;&gt;TodosModule -->
<g id="edge2" class="edge">
<title>TodoCardItemContainerComponent&#45;&gt;TodosModule</title>
<path fill="none" stroke="#000000" d="M1642,-122.1289C1642,-142.5724 1642,-173 1642,-173 1642,-173 976.1592,-173 976.1592,-173"/>
<polygon fill="#000000" stroke="#000000" points="976.1592,-169.5001 966.1592,-173 976.1591,-176.5001 976.1592,-169.5001"/>
</g>
<!-- TodoCategoryListContainerComponent -->
<g id="node3" class="node">
<title>TodoCategoryListContainerComponent</title>
<polygon fill="#ffffb3" stroke="#000000" points="1514.6881,-122 1275.3119,-122 1275.3119,-86 1514.6881,-86 1514.6881,-122"/>
<text text-anchor="middle" x="1395" y="-99.8" font-family="Times,serif" font-size="14.00" fill="#000000">TodoCategoryListContainerComponent</text>
</g>
<!-- TodoCategoryListContainerComponent&#45;&gt;TodosModule -->
<g id="edge3" class="edge">
<title>TodoCategoryListContainerComponent&#45;&gt;TodosModule</title>
<path fill="none" stroke="#000000" d="M1395,-122.2667C1395,-140.5552 1395,-166 1395,-166 1395,-166 976.3809,-166 976.3809,-166"/>
<polygon fill="#000000" stroke="#000000" points="976.381,-162.5001 966.3809,-166 976.3809,-169.5001 976.381,-162.5001"/>
</g>
<!-- TodoCreateComponent -->
<g id="node4" class="node">
<title>TodoCreateComponent</title>
<polygon fill="#ffffb3" stroke="#000000" points="1257.9172,-122 1110.0828,-122 1110.0828,-86 1257.9172,-86 1257.9172,-122"/>
<text text-anchor="middle" x="1184" y="-99.8" font-family="Times,serif" font-size="14.00" fill="#000000">TodoCreateComponent</text>
</g>
<!-- TodoCreateComponent&#45;&gt;TodosModule -->
<g id="edge4" class="edge">
<title>TodoCreateComponent&#45;&gt;TodosModule</title>
<path fill="none" stroke="#000000" d="M1184,-122.0091C1184,-138.0494 1184,-159 1184,-159 1184,-159 976.0713,-159 976.0713,-159"/>
<polygon fill="#000000" stroke="#000000" points="976.0714,-155.5001 966.0713,-159 976.0713,-162.5001 976.0714,-155.5001"/>
</g>
<!-- TodoDetailsComponent -->
<g id="node5" class="node">
<title>TodoDetailsComponent</title>
<polygon fill="#ffffb3" stroke="#000000" points="1092.0379,-122 941.9621,-122 941.9621,-86 1092.0379,-86 1092.0379,-122"/>
<text text-anchor="middle" x="1017" y="-99.8" font-family="Times,serif" font-size="14.00" fill="#000000">TodoDetailsComponent</text>
</g>
<!-- TodoDetailsComponent&#45;&gt;TodosModule -->
<g id="edge5" class="edge">
<title>TodoDetailsComponent&#45;&gt;TodosModule</title>
<path fill="none" stroke="#000000" d="M954.0025,-122.1061C954.0025,-122.1061 954.0025,-140.991 954.0025,-140.991"/>
<polygon fill="#000000" stroke="#000000" points="950.5025,-140.9909 954.0025,-150.991 957.5025,-140.991 950.5025,-140.9909"/>
</g>
<!-- TodoDetailsContainerComponent -->
<g id="node6" class="node">
<title>TodoDetailsContainerComponent</title>
<polygon fill="#ffffb3" stroke="#000000" points="923.745,-122 718.255,-122 718.255,-86 923.745,-86 923.745,-122"/>
<text text-anchor="middle" x="821" y="-99.8" font-family="Times,serif" font-size="14.00" fill="#000000">TodoDetailsContainerComponent</text>
</g>
<!-- TodoDetailsContainerComponent&#45;&gt;TodosModule -->
<g id="edge6" class="edge">
<title>TodoDetailsContainerComponent&#45;&gt;TodosModule</title>
<path fill="none" stroke="#000000" d="M897.7995,-122.1061C897.7995,-122.1061 897.7995,-140.991 897.7995,-140.991"/>
<polygon fill="#000000" stroke="#000000" points="894.2995,-140.9909 897.7995,-150.991 901.2995,-140.991 894.2995,-140.9909"/>
</g>
<!-- TodoEditContainerComponent -->
<g id="node7" class="node">
<title>TodoEditContainerComponent</title>
<polygon fill="#ffffb3" stroke="#000000" points="699.9269,-122 510.0731,-122 510.0731,-86 699.9269,-86 699.9269,-122"/>
<text text-anchor="middle" x="605" y="-99.8" font-family="Times,serif" font-size="14.00" fill="#000000">TodoEditContainerComponent</text>
</g>
<!-- TodoEditContainerComponent&#45;&gt;TodosModule -->
<g id="edge7" class="edge">
<title>TodoEditContainerComponent&#45;&gt;TodosModule</title>
<path fill="none" stroke="#000000" d="M605,-122.0091C605,-138.0494 605,-159 605,-159 605,-159 861.6511,-159 861.6511,-159"/>
<polygon fill="#000000" stroke="#000000" points="861.6511,-162.5001 871.6511,-159 861.651,-155.5001 861.6511,-162.5001"/>
</g>
<!-- TodoListContainerComponent -->
<g id="node8" class="node">
<title>TodoListContainerComponent</title>
<polygon fill="#ffffb3" stroke="#000000" points="491.871,-122 304.129,-122 304.129,-86 491.871,-86 491.871,-122"/>
<text text-anchor="middle" x="398" y="-99.8" font-family="Times,serif" font-size="14.00" fill="#000000">TodoListContainerComponent</text>
</g>
<!-- TodoListContainerComponent&#45;&gt;TodosModule -->
<g id="edge8" class="edge">
<title>TodoListContainerComponent&#45;&gt;TodosModule</title>
<path fill="none" stroke="#000000" d="M398,-122.2667C398,-140.5552 398,-166 398,-166 398,-166 861.8458,-166 861.8458,-166"/>
<polygon fill="#000000" stroke="#000000" points="861.8459,-169.5001 871.8458,-166 861.8458,-162.5001 861.8459,-169.5001"/>
</g>
<!-- SharedModule -->
<g id="node10" class="node">
<title>SharedModule</title>
<polygon fill="#8dd3c7" stroke="#000000" points="280.4231,-122 277.4231,-126 256.4231,-126 253.4231,-122 181.5769,-122 181.5769,-86 280.4231,-86 280.4231,-122"/>
<text text-anchor="middle" x="231" y="-99.8" font-family="Times,serif" font-size="14.00" fill="#000000">SharedModule</text>
</g>
<!-- SharedModule&#45;&gt;TodosModule -->
<g id="edge9" class="edge">
<title>SharedModule&#45;&gt;TodosModule</title>
<path fill="none" stroke="#000000" d="M231,-122.1289C231,-142.5724 231,-173 231,-173 231,-173 861.711,-173 861.711,-173"/>
<polygon fill="#000000" stroke="#000000" points="861.711,-176.5001 871.711,-173 861.7109,-169.5001 861.711,-176.5001"/>
</g>
<!-- TodosRoutingModule -->
<g id="node11" class="node">
<title>TodosRoutingModule</title>
<polygon fill="#8dd3c7" stroke="#000000" points="163.6652,-122 160.6652,-126 139.6652,-126 136.6652,-122 24.3348,-122 24.3348,-86 163.6652,-86 163.6652,-122"/>
<text text-anchor="middle" x="94" y="-99.8" font-family="Times,serif" font-size="14.00" fill="#000000">TodosRoutingModule</text>
</g>
<!-- TodosRoutingModule&#45;&gt;TodosModule -->
<g id="edge10" class="edge">
<title>TodosRoutingModule&#45;&gt;TodosModule</title>
<path fill="none" stroke="#000000" d="M94,-122.0109C94,-144.4852 94,-180 94,-180 94,-180 861.6813,-180 861.6813,-180"/>
<polygon fill="#000000" stroke="#000000" points="861.6813,-183.5001 871.6813,-180 861.6812,-176.5001 861.6813,-183.5001"/>
</g>
</g>
</svg>
